<svg width="36" height="32" viewBox="0 0 36 32" fill="none" xmlns="http://www.w3.org/2000/svg">
<path d="M27.8163 30.75H8.18299C7.65352 30.7505 7.13918 30.5734 6.72222 30.2471C6.30526 29.9208 6.00977 29.4641 5.88299 28.95L1.46632 11.2667C1.42323 11.0945 1.41997 10.9148 1.4568 10.7412C1.49363 10.5676 1.56958 10.4047 1.67886 10.2649C1.78815 10.125 1.92789 10.012 2.08745 9.93432C2.24702 9.85665 2.4222 9.81641 2.59966 9.81665H33.3997C33.5771 9.81641 33.7523 9.85665 33.9119 9.93432C34.0714 10.012 34.2112 10.125 34.3205 10.2649C34.4297 10.4047 34.5057 10.5676 34.5425 10.7412C34.5793 10.9148 34.5761 11.0945 34.533 11.2667L30.1163 28.95C29.9896 29.4641 29.6941 29.9208 29.2771 30.2471C28.8601 30.5734 28.3458 30.7505 27.8163 30.75V30.75Z" stroke="#151515" stroke-width="2.5" stroke-linecap="round" stroke-linejoin="round"/>
<path d="M14.3328 1.25L9.49951 9.81667" stroke="#151515" stroke-width="2.5" stroke-linecap="round" stroke-linejoin="round"/>
<path d="M21.1333 1.25L25.9833 9.81667" stroke="#151515" stroke-width="2.5" stroke-linecap="round" stroke-linejoin="round"/>
</svg>
